# xmcd
#
# Track frame offsets:
#	150
#	18616
#	34913
#	51530
#	77920
#	95336
#	114975
#	133010
#	149032
#	176990
#	192837
#	207646
#	222954
#	238297
#	257773
#
# Disc length: 3645 seconds
#
# Revision: 1
# Processed by: cddbd v1.5.2PL0 Copyright (c) Steve Scherf et al.
# Submitted via: audiograbber 1.83.01
#
DISCID=f10e3b0f
DTITLE=Brendan Shine - Like Father, Like Daughter
DYEAR=1900
DGENRE=
TTITLE0=Love, Love, Love
TTITLE1=Forty Shades Of Green
TTITLE2=Partners In Rhyme
TTITLE3=Bang On The Ear
TTITLE4=Hello, My Old Friend
TTITLE5=Hometown Athlone
TTITLE6=The Voyage
TTITLE7=Follow Me
TTITLE8=Titanic's Trilogy
TTITLE9=It's A Dream Come True
TTITLE10=Dimming Of The Day
TTITLE11=Loves Been Good To Me
TTITLE12=I Will Always Love You
TTITLE13=Say You Love Me
TTITLE14=Under The Light Of The Moon
EXTD=
EXTT0=
EXTT1=
EXTT2=
EXTT3=
EXTT4=
EXTT5=
EXTT6=
EXTT7=
EXTT8=
EXTT9=
EXTT10=
EXTT11=
EXTT12=
EXTT13=
EXTT14=
PLAYORDER=
